<svg xmlns="http://www.w3.org/2000/svg" xmlns:v="https://svgstorm.com"
viewBox = "0 0 32 32"
width="32"
height="32">
<g fill="None" fill-opacity="0.0" stroke="#000000" stroke-opacity="0.00" stroke-width="0.3"><path d="
M 0.00 32.00 
L 2.00 32.00
C 1.02 29.09 3.85 28.69 6.00 29.00
C 5.93 28.99 6.00 28.00 6.00 28.00
C 4.70 27.37 4.18 27.94 3.00 27.00
C 2.71 26.77 1.92 26.09 2.00 26.00
C 0.97 21.38 6.69 20.32 10.00 21.00
C 10.98 23.91 8.15 24.31 6.00 24.00
C 6.14 23.99 6.66 24.85 7.00 25.00
C 9.06 25.91 10.33 27.71 10.00 30.00
C 10.08 30.08 9.12 30.74 9.00 31.00
C 8.81 31.41 9.00 32.00 9.00 32.00
L 13.00 32.00
C 6.00 18.84 25.19 17.79 20.00 32.00
L 22.00 32.00
C 22.00 28.33 22.00 24.67 22.00 21.00
C 27.50 19.37 25.78 25.75 26.00 29.00
C 28.28 28.54 30.76 29.11 30.00 32.00
L 32.00 32.00
L 32.00 0.00
L 23.00 0.00
C 28.84 3.82 24.81 12.86 26.00 19.00
C 21.56 20.91 18.67 19.75 14.00 19.00
C 14.08 19.08 13.32 19.81 13.00 20.00
C 10.64 21.81 8.78 18.16 6.00 19.00
C 7.47 13.48 2.75 3.36 9.00 1.00
C 9.04 1.00 9.00 0.00 9.00 0.00
L 0.00 0.00
L 0.00 32.00 Z"/>
</g>
<g fill="None" fill-opacity="0.0" stroke="#DFB944" stroke-opacity="0.43" stroke-width="0.3"><path d="
M 9.00 1.00 
C 9.64 1.43 11.98 1.10 12.00 0.00
L 9.00 0.00
C 9.00 0.00 9.04 1.00 9.00 1.00 Z"/>
</g>
<g fill="None" fill-opacity="0.0" stroke="#DEB131" stroke-opacity="0.91" stroke-width="0.3"><path d="
M 9.00 1.00 
C 2.75 3.36 7.47 13.48 6.00 19.00
C 8.78 18.16 10.64 21.81 13.00 20.00
C 12.92 19.92 13.68 19.19 14.00 19.00
C 19.09 15.96 14.33 5.03 16.00 0.00
L 12.00 0.00
C 11.98 1.10 9.64 1.43 9.00 1.00 Z"/>
</g>
<g fill="None" fill-opacity="0.0" stroke="#FECB38" stroke-opacity="0.90" stroke-width="0.3"><path d="
M 14.00 19.00 
C 18.67 19.75 21.56 20.91 26.00 19.00
C 24.81 12.86 28.84 3.82 23.00 0.00
L 22.00 0.00
C 21.99 1.19 20.01 1.17 20.00 0.00
L 16.00 0.00
C 14.33 5.03 19.09 15.96 14.00 19.00 Z"/>
</g>
<g fill="None" fill-opacity="0.0" stroke="#FED54E" stroke-opacity="0.55" stroke-width="0.3"><path d="
M 22.00 0.00 
L 20.00 0.00
C 20.01 1.17 21.99 1.19 22.00 0.00 Z"/>
</g>
<g fill="None" fill-opacity="0.0" stroke="#DE9F00" stroke-opacity="0.03" stroke-width="0.3"><path d="
M 13.00 20.00 
C 13.32 19.81 14.08 19.08 14.00 19.00
C 13.68 19.19 12.92 19.92 13.00 20.00 Z"/>
</g>
<g fill="None" fill-opacity="0.0" stroke="#1D8CE3" stroke-opacity="0.73" stroke-width="0.3"><path d="
M 2.00 26.00 
C 2.08 25.92 2.77 26.72 3.00 27.00
C 4.18 27.94 4.70 27.37 6.00 28.00
C 6.80 28.38 6.93 28.70 6.00 29.00
C 3.85 28.69 1.02 29.09 2.00 32.00
L 8.00 32.00
C 8.17 31.67 8.75 31.25 9.00 31.00
C 9.25 30.75 9.91 29.91 10.00 30.00
C 10.33 27.71 9.06 25.91 7.00 25.00
C 6.87 26.82 3.99 24.14 6.00 24.00
C 8.15 24.31 10.98 23.91 10.00 21.00
C 6.69 20.32 0.97 21.38 2.00 26.00 Z"/>
</g>
<g fill="None" fill-opacity="0.0" stroke="#1E8BE3" stroke-opacity="0.83" stroke-width="0.3"><path d="
M 13.00 32.00 
L 20.00 32.00
C 25.19 17.79 6.00 18.84 13.00 32.00
M 17.00 25.00 
C 17.73 25.73 16.29 27.67 15.29 26.63 C 14.30 25.60 16.45 24.45 17.00 25.00 Z"/>
</g>
<g fill="None" fill-opacity="0.0" stroke="#1D8AE0" stroke-opacity="0.67" stroke-width="0.3"><path d="
M 22.00 32.00 
L 30.00 32.00
C 30.76 29.11 28.28 28.54 26.00 29.00
C 25.78 25.75 27.50 19.37 22.00 21.00
C 22.00 24.67 22.00 28.33 22.00 32.00 Z"/>
</g>
<g fill="None" fill-opacity="0.0" stroke="#2096F5" stroke-opacity="0.53" stroke-width="0.3"><path d="
M 7.00 25.00 
C 6.66 24.85 6.14 23.99 6.00 24.00
C 3.99 24.14 6.87 26.82 7.00 25.00 Z"/>
</g>
<g fill="None" fill-opacity="0.0" stroke="#000000" stroke-opacity="0.00" stroke-width="0.3"><path d="
M 17.00 25.00 
C 16.45 24.45 14.30 25.60 15.29 26.63 C 16.29 27.67 17.73 25.73 17.00 25.00 Z"/>
</g>
<g fill="None" fill-opacity="0.0" stroke="#0000FF" stroke-opacity="0.00" stroke-width="0.3"><path d="
M 3.00 27.00 
C 2.77 26.72 2.08 25.92 2.00 26.00
C 1.92 26.09 2.71 26.77 3.00 27.00 Z"/>
</g>
<g fill="None" fill-opacity="0.0" stroke="#1D84D5" stroke-opacity="0.45" stroke-width="0.3"><path d="
M 6.00 29.00 
C 6.93 28.70 6.80 28.38 6.00 28.00
C 6.00 28.00 5.93 28.99 6.00 29.00 Z"/>
</g>
<g fill="None" fill-opacity="0.0" stroke="#0000FF" stroke-opacity="0.00" stroke-width="0.3"><path d="
M 9.00 31.00 
C 9.12 30.74 10.08 30.08 10.00 30.00
C 9.91 29.91 9.25 30.75 9.00 31.00 Z"/>
</g>
<g fill="None" fill-opacity="0.0" stroke="#1D80D5" stroke-opacity="0.07" stroke-width="0.3"><path d="
M 8.00 32.00 
L 9.00 32.00
C 9.00 32.00 8.81 31.41 9.00 31.00
C 8.75 31.25 8.17 31.67 8.00 32.00 Z"/>
</g>
<g fill="#000000" fill-opacity="0.00" stroke="None">
<path d="
M 0.00 32.00 
L 2.00 32.00
C 1.02 29.09 3.85 28.69 6.00 29.00
C 5.93 28.99 6.00 28.00 6.00 28.00
C 4.70 27.37 4.18 27.94 3.00 27.00
C 2.71 26.77 1.92 26.09 2.00 26.00
C 0.97 21.38 6.69 20.32 10.00 21.00
C 10.98 23.91 8.15 24.31 6.00 24.00
C 6.14 23.99 6.66 24.85 7.00 25.00
C 9.06 25.91 10.33 27.71 10.00 30.00
C 10.08 30.08 9.12 30.74 9.00 31.00
C 8.81 31.41 9.00 32.00 9.00 32.00
L 13.00 32.00
C 6.00 18.84 25.19 17.79 20.00 32.00
L 22.00 32.00
C 22.00 28.33 22.00 24.67 22.00 21.00
C 27.50 19.37 25.78 25.75 26.00 29.00
C 28.28 28.54 30.76 29.11 30.00 32.00
L 32.00 32.00
L 32.00 0.00
L 23.00 0.00
C 28.84 3.82 24.81 12.86 26.00 19.00
C 21.56 20.91 18.67 19.75 14.00 19.00
C 14.08 19.08 13.32 19.81 13.00 20.00
C 10.64 21.81 8.78 18.16 6.00 19.00
C 7.47 13.48 2.75 3.36 9.00 1.00
C 9.04 1.00 9.00 0.00 9.00 0.00
L 0.00 0.00
L 0.00 32.00 Z"/>
</g>
<g fill="#DFB944" fill-opacity="0.43" stroke="None">
<path d="
M 9.00 1.00 
C 9.64 1.43 11.98 1.10 12.00 0.00
L 9.00 0.00
C 9.00 0.00 9.04 1.00 9.00 1.00 Z"/>
</g>
<g fill="#DEB131" fill-opacity="0.91" stroke="None">
<path d="
M 9.00 1.00 
C 2.75 3.36 7.47 13.48 6.00 19.00
C 8.78 18.16 10.64 21.81 13.00 20.00
C 12.92 19.92 13.68 19.19 14.00 19.00
C 19.09 15.96 14.33 5.03 16.00 0.00
L 12.00 0.00
C 11.98 1.10 9.64 1.43 9.00 1.00 Z"/>
</g>
<g fill="#FECB38" fill-opacity="0.90" stroke="None">
<path d="
M 14.00 19.00 
C 18.67 19.75 21.56 20.91 26.00 19.00
C 24.81 12.86 28.84 3.82 23.00 0.00
L 22.00 0.00
C 21.99 1.19 20.01 1.17 20.00 0.00
L 16.00 0.00
C 14.33 5.03 19.09 15.96 14.00 19.00 Z"/>
</g>
<g fill="#FED54E" fill-opacity="0.55" stroke="None">
<path d="
M 22.00 0.00 
L 20.00 0.00
C 20.01 1.17 21.99 1.19 22.00 0.00 Z"/>
</g>
<g fill="#DE9F00" fill-opacity="0.03" stroke="None">
<path d="
M 13.00 20.00 
C 13.32 19.81 14.08 19.08 14.00 19.00
C 13.68 19.19 12.92 19.92 13.00 20.00 Z"/>
</g>
<g fill="#1D8CE3" fill-opacity="0.73" stroke="None">
<path d="
M 2.00 26.00 
C 2.08 25.92 2.77 26.72 3.00 27.00
C 4.18 27.94 4.70 27.37 6.00 28.00
C 6.80 28.38 6.93 28.70 6.00 29.00
C 3.85 28.69 1.02 29.09 2.00 32.00
L 8.00 32.00
C 8.17 31.67 8.75 31.25 9.00 31.00
C 9.25 30.75 9.91 29.91 10.00 30.00
C 10.33 27.71 9.06 25.91 7.00 25.00
C 6.87 26.82 3.99 24.14 6.00 24.00
C 8.15 24.31 10.98 23.91 10.00 21.00
C 6.69 20.32 0.97 21.38 2.00 26.00 Z"/>
</g>
<g fill="#1E8BE3" fill-opacity="0.83" stroke="None">
<path d="
M 13.00 32.00 
L 20.00 32.00
C 25.19 17.79 6.00 18.84 13.00 32.00
M 17.00 25.00 
C 17.73 25.73 16.29 27.67 15.29 26.63 C 14.30 25.60 16.45 24.45 17.00 25.00 Z"/>
</g>
<g fill="#1D8AE0" fill-opacity="0.67" stroke="None">
<path d="
M 22.00 32.00 
L 30.00 32.00
C 30.76 29.11 28.28 28.54 26.00 29.00
C 25.78 25.75 27.50 19.37 22.00 21.00
C 22.00 24.67 22.00 28.33 22.00 32.00 Z"/>
</g>
<g fill="#2096F5" fill-opacity="0.53" stroke="None">
<path d="
M 7.00 25.00 
C 6.66 24.85 6.14 23.99 6.00 24.00
C 3.99 24.14 6.87 26.82 7.00 25.00 Z"/>
</g>
<g fill="#000000" fill-opacity="0.00" stroke="None">
<path d="
M 17.00 25.00 
C 16.45 24.45 14.30 25.60 15.29 26.63 C 16.29 27.67 17.73 25.73 17.00 25.00 Z"/>
</g>
<g fill="#0000FF" fill-opacity="0.00" stroke="None">
<path d="
M 3.00 27.00 
C 2.77 26.72 2.08 25.92 2.00 26.00
C 1.92 26.09 2.71 26.77 3.00 27.00 Z"/>
</g>
<g fill="#1D84D5" fill-opacity="0.45" stroke="None">
<path d="
M 6.00 29.00 
C 6.93 28.70 6.80 28.38 6.00 28.00
C 6.00 28.00 5.93 28.99 6.00 29.00 Z"/>
</g>
<g fill="#0000FF" fill-opacity="0.00" stroke="None">
<path d="
M 9.00 31.00 
C 9.12 30.74 10.08 30.08 10.00 30.00
C 9.91 29.91 9.25 30.75 9.00 31.00 Z"/>
</g>
<g fill="#1D80D5" fill-opacity="0.07" stroke="None">
<path d="
M 8.00 32.00 
L 9.00 32.00
C 9.00 32.00 8.81 31.41 9.00 31.00
C 8.75 31.25 8.17 31.67 8.00 32.00 Z"/>
</g>
</svg>